<mxfile host="app.diagrams.net" agent="Mozilla/5.0 (Macintosh; Intel Mac OS X 10_15_7) AppleWebKit/537.36 (KHTML, like Gecko) Chrome/137.0.0.0 Safari/537.36 Edg/137.0.0.0" version="28.0.4">
  <diagram name="第 1 页" id="WXYSXaav7kxy3eAsdMKT">
    <mxGraphModel dx="1533" dy="1125" grid="0" gridSize="10" guides="1" tooltips="1" connect="1" arrows="1" fold="1" page="0" pageScale="1" pageWidth="827" pageHeight="1169" math="0" shadow="0">
      <root>
        <mxCell id="0" />
        <mxCell id="1" parent="0" />
        <mxCell id="tZloPaobeN7OhY3Gv7uN-1" value="&lt;font style=&quot;font-size: 14px;&quot;&gt;&lt;b&gt;计算算子&lt;/b&gt;&lt;/font&gt;" style="rounded=1;whiteSpace=wrap;html=1;fillColor=#f8cecc;strokeColor=#b85450;" parent="1" vertex="1">
          <mxGeometry x="1120" y="379" width="120" height="60" as="geometry" />
        </mxCell>
        <mxCell id="tZloPaobeN7OhY3Gv7uN-2" style="edgeStyle=orthogonalEdgeStyle;rounded=0;orthogonalLoop=1;jettySize=auto;html=1;entryX=0;entryY=0.5;entryDx=0;entryDy=0;" parent="1" source="tZloPaobeN7OhY3Gv7uN-16" target="tZloPaobeN7OhY3Gv7uN-31" edge="1">
          <mxGeometry relative="1" as="geometry" />
        </mxCell>
        <mxCell id="tZloPaobeN7OhY3Gv7uN-3" style="edgeStyle=orthogonalEdgeStyle;rounded=0;orthogonalLoop=1;jettySize=auto;html=1;entryX=0;entryY=0.5;entryDx=0;entryDy=0;" parent="1" source="tZloPaobeN7OhY3Gv7uN-31" target="tZloPaobeN7OhY3Gv7uN-1" edge="1">
          <mxGeometry relative="1" as="geometry">
            <Array as="points">
              <mxPoint x="1079" y="532" />
              <mxPoint x="1079" y="409" />
            </Array>
          </mxGeometry>
        </mxCell>
        <mxCell id="tZloPaobeN7OhY3Gv7uN-4" style="edgeStyle=orthogonalEdgeStyle;rounded=0;orthogonalLoop=1;jettySize=auto;html=1;entryX=0.003;entryY=0.455;entryDx=0;entryDy=0;entryPerimeter=0;" parent="1" source="tZloPaobeN7OhY3Gv7uN-1" target="tZloPaobeN7OhY3Gv7uN-21" edge="1">
          <mxGeometry relative="1" as="geometry" />
        </mxCell>
        <mxCell id="tZloPaobeN7OhY3Gv7uN-5" style="edgeStyle=orthogonalEdgeStyle;rounded=0;orthogonalLoop=1;jettySize=auto;html=1;entryX=0;entryY=0.5;entryDx=0;entryDy=0;" parent="1" source="tZloPaobeN7OhY3Gv7uN-7" target="tZloPaobeN7OhY3Gv7uN-44" edge="1">
          <mxGeometry relative="1" as="geometry" />
        </mxCell>
        <mxCell id="tZloPaobeN7OhY3Gv7uN-6" value="&lt;span style=&quot;font-size: 13px;&quot;&gt;fast_path&lt;/span&gt;" style="edgeLabel;html=1;align=center;verticalAlign=middle;resizable=0;points=[];fontStyle=3;fontColor=#FF3333;" parent="tZloPaobeN7OhY3Gv7uN-5" vertex="1" connectable="0">
          <mxGeometry x="0.1114" relative="1" as="geometry">
            <mxPoint x="-9" as="offset" />
          </mxGeometry>
        </mxCell>
        <mxCell id="tZloPaobeN7OhY3Gv7uN-7" value="&lt;font style=&quot;font-size: 14px;&quot;&gt;&lt;b&gt;view-like 算子&lt;/b&gt;&lt;/font&gt;" style="rounded=1;whiteSpace=wrap;html=1;fillColor=#e1d5e7;strokeColor=#9673a6;" parent="1" vertex="1">
          <mxGeometry x="1119" y="678.4" width="120" height="60" as="geometry" />
        </mxCell>
        <mxCell id="tZloPaobeN7OhY3Gv7uN-8" style="edgeStyle=orthogonalEdgeStyle;rounded=0;orthogonalLoop=1;jettySize=auto;html=1;entryX=0;entryY=0.5;entryDx=0;entryDy=0;" parent="1" source="tZloPaobeN7OhY3Gv7uN-31" target="tZloPaobeN7OhY3Gv7uN-7" edge="1">
          <mxGeometry relative="1" as="geometry" />
        </mxCell>
        <mxCell id="tZloPaobeN7OhY3Gv7uN-9" style="edgeStyle=orthogonalEdgeStyle;rounded=0;orthogonalLoop=1;jettySize=auto;html=1;entryX=0;entryY=0.5;entryDx=0;entryDy=0;" parent="1" source="tZloPaobeN7OhY3Gv7uN-13" target="tZloPaobeN7OhY3Gv7uN-26" edge="1">
          <mxGeometry relative="1" as="geometry" />
        </mxCell>
        <mxCell id="tZloPaobeN7OhY3Gv7uN-10" value="&lt;b&gt;&lt;font style=&quot;color: rgb(255, 51, 51);&quot;&gt;创建新内存&lt;/font&gt;&lt;/b&gt;" style="edgeLabel;html=1;align=center;verticalAlign=middle;resizable=0;points=[];" parent="tZloPaobeN7OhY3Gv7uN-9" vertex="1" connectable="0">
          <mxGeometry x="0.0169" y="-1" relative="1" as="geometry">
            <mxPoint as="offset" />
          </mxGeometry>
        </mxCell>
        <mxCell id="tZloPaobeN7OhY3Gv7uN-11" style="edgeStyle=orthogonalEdgeStyle;rounded=0;orthogonalLoop=1;jettySize=auto;html=1;entryX=0;entryY=0.5;entryDx=0;entryDy=0;" parent="1" source="tZloPaobeN7OhY3Gv7uN-13" target="tZloPaobeN7OhY3Gv7uN-41" edge="1">
          <mxGeometry relative="1" as="geometry" />
        </mxCell>
        <mxCell id="tZloPaobeN7OhY3Gv7uN-12" value="&lt;font style=&quot;color: rgb(255, 51, 51);&quot;&gt;&lt;b&gt;不创建内存&lt;/b&gt;&lt;/font&gt;" style="edgeLabel;html=1;align=center;verticalAlign=middle;resizable=0;points=[];" parent="tZloPaobeN7OhY3Gv7uN-11" vertex="1" connectable="0">
          <mxGeometry x="-0.0808" y="1" relative="1" as="geometry">
            <mxPoint as="offset" />
          </mxGeometry>
        </mxCell>
        <mxCell id="tZloPaobeN7OhY3Gv7uN-13" value="&lt;font style=&quot;font-size: 14px;&quot;&gt;&lt;b&gt;contiguous&lt;/b&gt;&lt;/font&gt;" style="rounded=1;whiteSpace=wrap;html=1;fillColor=#fff2cc;strokeColor=#d6b656;" parent="1" vertex="1">
          <mxGeometry x="1547" y="676.4" width="120" height="60" as="geometry" />
        </mxCell>
        <mxCell id="tZloPaobeN7OhY3Gv7uN-14" style="edgeStyle=orthogonalEdgeStyle;rounded=0;orthogonalLoop=1;jettySize=auto;html=1;" parent="1" source="tZloPaobeN7OhY3Gv7uN-44" target="tZloPaobeN7OhY3Gv7uN-13" edge="1">
          <mxGeometry relative="1" as="geometry" />
        </mxCell>
        <mxCell id="tZloPaobeN7OhY3Gv7uN-15" value="" style="group" parent="1" vertex="1" connectable="0">
          <mxGeometry x="631" y="472" width="134" height="120" as="geometry" />
        </mxCell>
        <mxCell id="tZloPaobeN7OhY3Gv7uN-16" value="" style="rounded=0;whiteSpace=wrap;html=1;dashed=1;container=0;" parent="tZloPaobeN7OhY3Gv7uN-15" vertex="1">
          <mxGeometry width="134" height="120" as="geometry" />
        </mxCell>
        <mxCell id="tZloPaobeN7OhY3Gv7uN-17" value="SplitInfo 1" style="rounded=1;whiteSpace=wrap;html=1;fillColor=#ffe6cc;strokeColor=#d79b00;container=0;" parent="tZloPaobeN7OhY3Gv7uN-15" vertex="1">
          <mxGeometry x="16.5" y="43.5" width="101" height="23.5" as="geometry" />
        </mxCell>
        <mxCell id="tZloPaobeN7OhY3Gv7uN-18" value="&lt;b&gt;&lt;font style=&quot;font-size: 14px;&quot;&gt;Tensor a&lt;/font&gt;&lt;/b&gt;" style="text;html=1;align=center;verticalAlign=middle;whiteSpace=wrap;rounded=0;container=0;" parent="tZloPaobeN7OhY3Gv7uN-15" vertex="1">
          <mxGeometry x="10.5" y="4" width="60" height="30" as="geometry" />
        </mxCell>
        <mxCell id="tZloPaobeN7OhY3Gv7uN-19" value="ParallelInfo 1" style="rounded=1;whiteSpace=wrap;html=1;fillColor=#ffe6cc;strokeColor=#d79b00;container=0;" parent="tZloPaobeN7OhY3Gv7uN-15" vertex="1">
          <mxGeometry x="16.5" y="82" width="101" height="25" as="geometry" />
        </mxCell>
        <mxCell id="tZloPaobeN7OhY3Gv7uN-20" value="" style="group" parent="1" vertex="1" connectable="0">
          <mxGeometry x="1348" y="354" width="134" height="120" as="geometry" />
        </mxCell>
        <mxCell id="tZloPaobeN7OhY3Gv7uN-21" value="" style="rounded=0;whiteSpace=wrap;html=1;movable=1;resizable=1;rotatable=1;deletable=1;editable=1;locked=0;connectable=1;dashed=1;container=0;" parent="tZloPaobeN7OhY3Gv7uN-20" vertex="1">
          <mxGeometry width="134" height="120" as="geometry" />
        </mxCell>
        <mxCell id="tZloPaobeN7OhY3Gv7uN-22" value="SplitInfo 2" style="rounded=1;whiteSpace=wrap;html=1;fillColor=#d5e8d4;strokeColor=#82b366;container=0;" parent="tZloPaobeN7OhY3Gv7uN-20" vertex="1">
          <mxGeometry x="16.5" y="41.5" width="101" height="23.5" as="geometry" />
        </mxCell>
        <mxCell id="tZloPaobeN7OhY3Gv7uN-23" value="&lt;b&gt;&lt;font style=&quot;font-size: 14px;&quot;&gt;Tensor b&lt;/font&gt;&lt;/b&gt;" style="text;html=1;align=center;verticalAlign=middle;whiteSpace=wrap;rounded=0;container=0;" parent="tZloPaobeN7OhY3Gv7uN-20" vertex="1">
          <mxGeometry x="6" y="2" width="64.5" height="30" as="geometry" />
        </mxCell>
        <mxCell id="tZloPaobeN7OhY3Gv7uN-24" value="ParallelInfo 2" style="rounded=1;whiteSpace=wrap;html=1;fillColor=#d5e8d4;strokeColor=#82b366;container=0;" parent="tZloPaobeN7OhY3Gv7uN-20" vertex="1">
          <mxGeometry x="16.5" y="80" width="101" height="25" as="geometry" />
        </mxCell>
        <mxCell id="tZloPaobeN7OhY3Gv7uN-25" value="" style="group" parent="1" vertex="1" connectable="0">
          <mxGeometry x="1762" y="555" width="134" height="120" as="geometry" />
        </mxCell>
        <mxCell id="tZloPaobeN7OhY3Gv7uN-26" value="" style="rounded=0;whiteSpace=wrap;html=1;movable=1;resizable=1;rotatable=1;deletable=1;editable=1;locked=0;connectable=1;dashed=1;container=0;" parent="tZloPaobeN7OhY3Gv7uN-25" vertex="1">
          <mxGeometry width="134" height="120" as="geometry" />
        </mxCell>
        <mxCell id="tZloPaobeN7OhY3Gv7uN-27" value="&lt;b&gt;&lt;font style=&quot;font-size: 14px;&quot;&gt;Tensor c&lt;/font&gt;&lt;/b&gt;" style="text;html=1;align=center;verticalAlign=middle;whiteSpace=wrap;rounded=0;container=0;" parent="tZloPaobeN7OhY3Gv7uN-25" vertex="1">
          <mxGeometry x="6" y="2" width="64.5" height="30" as="geometry" />
        </mxCell>
        <mxCell id="tZloPaobeN7OhY3Gv7uN-28" value="ParallelInfo 2" style="rounded=1;whiteSpace=wrap;html=1;fillColor=#d5e8d4;strokeColor=#82b366;container=0;" parent="tZloPaobeN7OhY3Gv7uN-25" vertex="1">
          <mxGeometry x="16.5" y="80" width="101" height="25" as="geometry" />
        </mxCell>
        <mxCell id="tZloPaobeN7OhY3Gv7uN-29" value="SplitInfo 2" style="rounded=1;whiteSpace=wrap;html=1;fillColor=#d5e8d4;strokeColor=#82b366;container=0;" parent="tZloPaobeN7OhY3Gv7uN-25" vertex="1">
          <mxGeometry x="16.5" y="45" width="101" height="23.5" as="geometry" />
        </mxCell>
        <mxCell id="tZloPaobeN7OhY3Gv7uN-30" value="SplitInfo2 可由 ParalleInfo2 得到&lt;div&gt;&lt;br&gt;&lt;i&gt;&lt;u&gt;（setSplitInfoFromPlcAndMesh）&lt;/u&gt;&lt;/i&gt;&lt;/div&gt;" style="ellipse;shape=cloud;whiteSpace=wrap;html=1;dashed=1;" parent="1" vertex="1">
          <mxGeometry x="1703" y="410" width="243" height="108" as="geometry" />
        </mxCell>
        <mxCell id="tZloPaobeN7OhY3Gv7uN-31" value="" style="ellipse;whiteSpace=wrap;html=1;" parent="1" vertex="1">
          <mxGeometry x="813" y="439.75" width="226" height="184.5" as="geometry" />
        </mxCell>
        <mxCell id="tZloPaobeN7OhY3Gv7uN-32" value="&lt;font style=&quot;font-size: 14px;&quot;&gt;&lt;b&gt;Tade Mode dispatch&lt;/b&gt;&lt;/font&gt;" style="text;html=1;align=center;verticalAlign=middle;whiteSpace=wrap;rounded=0;" parent="1" vertex="1">
          <mxGeometry x="856.5" y="458" width="139" height="30" as="geometry" />
        </mxCell>
        <mxCell id="tZloPaobeN7OhY3Gv7uN-33" value="ParallelInfo 2" style="rounded=1;whiteSpace=wrap;html=1;fillColor=#d5e8d4;strokeColor=#82b366;container=0;" parent="1" vertex="1">
          <mxGeometry x="878" y="530" width="101" height="25" as="geometry" />
        </mxCell>
        <mxCell id="tZloPaobeN7OhY3Gv7uN-34" value="SplitInfo 2" style="rounded=1;whiteSpace=wrap;html=1;fillColor=#d5e8d4;strokeColor=#82b366;container=0;" parent="1" vertex="1">
          <mxGeometry x="878" y="492" width="101" height="23.5" as="geometry" />
        </mxCell>
        <mxCell id="tZloPaobeN7OhY3Gv7uN-35" style="edgeStyle=orthogonalEdgeStyle;rounded=0;orthogonalLoop=1;jettySize=auto;html=1;entryX=0.5;entryY=0;entryDx=0;entryDy=0;dashed=1;dashPattern=8 8;" parent="1" source="tZloPaobeN7OhY3Gv7uN-37" target="tZloPaobeN7OhY3Gv7uN-13" edge="1">
          <mxGeometry relative="1" as="geometry" />
        </mxCell>
        <mxCell id="tZloPaobeN7OhY3Gv7uN-36" value="&lt;font style=&quot;color: rgb(255, 51, 51); font-size: 13px;&quot;&gt;&lt;b&gt;消耗掉&lt;/b&gt;&lt;/font&gt;" style="edgeLabel;html=1;align=center;verticalAlign=middle;resizable=0;points=[];" parent="tZloPaobeN7OhY3Gv7uN-35" vertex="1" connectable="0">
          <mxGeometry x="-0.1681" y="-3" relative="1" as="geometry">
            <mxPoint x="1" y="-3" as="offset" />
          </mxGeometry>
        </mxCell>
        <mxCell id="tZloPaobeN7OhY3Gv7uN-37" value="MeshAllocInfosManager" style="rounded=1;whiteSpace=wrap;html=1;fillColor=#d5e8d4;strokeColor=#82b366;container=0;" parent="1" vertex="1">
          <mxGeometry x="858" y="570" width="136" height="25" as="geometry" />
        </mxCell>
        <mxCell id="tZloPaobeN7OhY3Gv7uN-38" style="edgeStyle=orthogonalEdgeStyle;rounded=0;orthogonalLoop=1;jettySize=auto;html=1;entryX=1;entryY=0;entryDx=0;entryDy=0;dashed=1;dashPattern=8 8;exitX=1;exitY=0.5;exitDx=0;exitDy=0;" parent="1" source="tZloPaobeN7OhY3Gv7uN-33" target="tZloPaobeN7OhY3Gv7uN-45" edge="1">
          <mxGeometry relative="1" as="geometry">
            <mxPoint x="1001" y="547.0005882352941" as="sourcePoint" />
            <mxPoint x="1446.5860000000002" y="654.53" as="targetPoint" />
          </mxGeometry>
        </mxCell>
        <mxCell id="tZloPaobeN7OhY3Gv7uN-39" value="&lt;font style=&quot;color: rgb(255, 51, 51); font-size: 13px;&quot;&gt;&lt;b&gt;消耗掉&lt;/b&gt;&lt;/font&gt;" style="edgeLabel;html=1;align=center;verticalAlign=middle;resizable=0;points=[];" parent="tZloPaobeN7OhY3Gv7uN-38" vertex="1" connectable="0">
          <mxGeometry x="0.0536" relative="1" as="geometry">
            <mxPoint x="-3" y="-1" as="offset" />
          </mxGeometry>
        </mxCell>
        <mxCell id="tZloPaobeN7OhY3Gv7uN-40" style="edgeStyle=orthogonalEdgeStyle;rounded=0;orthogonalLoop=1;jettySize=auto;html=1;entryX=0.521;entryY=0.948;entryDx=0;entryDy=0;entryPerimeter=0;" parent="1" source="tZloPaobeN7OhY3Gv7uN-26" target="tZloPaobeN7OhY3Gv7uN-30" edge="1">
          <mxGeometry relative="1" as="geometry" />
        </mxCell>
        <mxCell id="tZloPaobeN7OhY3Gv7uN-41" value="" style="rounded=0;whiteSpace=wrap;html=1;movable=1;resizable=1;rotatable=1;deletable=1;editable=1;locked=0;connectable=1;dashed=1;container=0;" parent="1" vertex="1">
          <mxGeometry x="1762" y="751" width="134" height="120" as="geometry" />
        </mxCell>
        <mxCell id="tZloPaobeN7OhY3Gv7uN-42" value="&lt;b&gt;&lt;font style=&quot;font-size: 14px;&quot;&gt;Tensor c&lt;/font&gt;&lt;/b&gt;" style="text;html=1;align=center;verticalAlign=middle;whiteSpace=wrap;rounded=0;container=0;" parent="1" vertex="1">
          <mxGeometry x="1768" y="753" width="64.5" height="30" as="geometry" />
        </mxCell>
        <mxCell id="tZloPaobeN7OhY3Gv7uN-43" value="ParallelInfo 2" style="rounded=1;whiteSpace=wrap;html=1;fillColor=#d5e8d4;strokeColor=#82b366;container=0;" parent="1" vertex="1">
          <mxGeometry x="1778.5" y="831" width="101" height="25" as="geometry" />
        </mxCell>
        <mxCell id="tZloPaobeN7OhY3Gv7uN-44" value="" style="rounded=0;whiteSpace=wrap;html=1;movable=1;resizable=1;rotatable=1;deletable=1;editable=1;locked=0;connectable=1;dashed=1;container=0;" parent="1" vertex="1">
          <mxGeometry x="1347" y="646.4" width="134" height="120" as="geometry" />
        </mxCell>
        <mxCell id="tZloPaobeN7OhY3Gv7uN-45" value="&lt;b&gt;&lt;font style=&quot;font-size: 14px;&quot;&gt;Tensor b&lt;/font&gt;&lt;/b&gt;" style="text;html=1;align=center;verticalAlign=middle;whiteSpace=wrap;rounded=0;container=0;" parent="1" vertex="1">
          <mxGeometry x="1353" y="648.4" width="64.5" height="30" as="geometry" />
        </mxCell>
        <mxCell id="tZloPaobeN7OhY3Gv7uN-46" value="ParallelInfo 2" style="rounded=1;whiteSpace=wrap;html=1;fillColor=#d5e8d4;strokeColor=#82b366;container=0;" parent="1" vertex="1">
          <mxGeometry x="1363.5" y="726.4" width="101" height="25" as="geometry" />
        </mxCell>
        <mxCell id="tZloPaobeN7OhY3Gv7uN-47" value="SplitInfo 1" style="rounded=1;whiteSpace=wrap;html=1;fillColor=#ffe6cc;strokeColor=#d79b00;container=0;" parent="1" vertex="1">
          <mxGeometry x="1363.5" y="691.4" width="101" height="23.5" as="geometry" />
        </mxCell>
        <mxCell id="tZloPaobeN7OhY3Gv7uN-48" value="SplitInfo 1" style="rounded=1;whiteSpace=wrap;html=1;fillColor=#ffe6cc;strokeColor=#d79b00;container=0;" parent="1" vertex="1">
          <mxGeometry x="1778.5" y="793" width="101" height="23.5" as="geometry" />
        </mxCell>
      </root>
    </mxGraphModel>
  </diagram>
</mxfile>
